<mxfile host="app.diagrams.net" modified="2024-04-05T14:49:55.595Z" agent="Mozilla/5.0 (Windows NT 10.0; Win64; x64) AppleWebKit/537.36 (KHTML, like Gecko) Chrome/123.0.0.0 Safari/537.36" etag="VI0G6PHYhkYIxsO1vqtk" version="22.1.21" type="device">
  <diagram name="Page-1" id="nlCo-y9ZHadXsu0o7bU2">
    <mxGraphModel dx="1050" dy="557" grid="0" gridSize="10" guides="1" tooltips="1" connect="1" arrows="1" fold="1" page="1" pageScale="1" pageWidth="827" pageHeight="1169" math="0" shadow="0">
      <root>
        <mxCell id="0" />
        <mxCell id="1" parent="0" />
        <mxCell id="qzhFqN_j2J7B2suRVD-d-1" value="server.py" style="image;aspect=fixed;perimeter=ellipsePerimeter;html=1;align=center;shadow=0;dashed=0;spacingTop=3;image=img/lib/active_directory/database_server.svg;" vertex="1" parent="1">
          <mxGeometry x="329" y="439" width="65.6" height="80" as="geometry" />
        </mxCell>
        <mxCell id="qzhFqN_j2J7B2suRVD-d-2" value="client.py" style="image;aspect=fixed;perimeter=ellipsePerimeter;html=1;align=center;shadow=0;dashed=0;spacingTop=3;image=img/lib/active_directory/laptop_client.svg;" vertex="1" parent="1">
          <mxGeometry x="74" y="200" width="72" height="80" as="geometry" />
        </mxCell>
        <mxCell id="qzhFqN_j2J7B2suRVD-d-5" value="giocatore1" style="sketch=0;outlineConnect=0;fontColor=#232F3E;gradientColor=none;fillColor=#232F3D;strokeColor=none;dashed=0;verticalLabelPosition=bottom;verticalAlign=top;align=center;html=1;fontSize=12;fontStyle=0;aspect=fixed;pointerEvents=1;shape=mxgraph.aws4.user;spacingTop=-70;" vertex="1" parent="1">
          <mxGeometry x="90" y="90" width="40" height="40" as="geometry" />
        </mxCell>
        <mxCell id="qzhFqN_j2J7B2suRVD-d-6" value="" style="endArrow=classic;html=1;rounded=0;entryX=0.5;entryY=0;entryDx=0;entryDy=0;" edge="1" parent="1" source="qzhFqN_j2J7B2suRVD-d-5" target="qzhFqN_j2J7B2suRVD-d-2">
          <mxGeometry width="50" height="50" relative="1" as="geometry">
            <mxPoint x="164" y="460" as="sourcePoint" />
            <mxPoint x="160" y="180" as="targetPoint" />
          </mxGeometry>
        </mxCell>
        <mxCell id="qzhFqN_j2J7B2suRVD-d-7" value="usa" style="edgeLabel;html=1;align=center;verticalAlign=middle;resizable=0;points=[];" vertex="1" connectable="0" parent="qzhFqN_j2J7B2suRVD-d-6">
          <mxGeometry x="0.1" y="-1" relative="1" as="geometry">
            <mxPoint x="1" y="-14" as="offset" />
          </mxGeometry>
        </mxCell>
        <mxCell id="qzhFqN_j2J7B2suRVD-d-8" value="client.py" style="image;aspect=fixed;perimeter=ellipsePerimeter;html=1;align=center;shadow=0;dashed=0;spacingTop=3;image=img/lib/active_directory/laptop_client.svg;" vertex="1" parent="1">
          <mxGeometry x="246.8" y="200" width="72" height="80" as="geometry" />
        </mxCell>
        <mxCell id="qzhFqN_j2J7B2suRVD-d-9" value="giocatore2" style="sketch=0;outlineConnect=0;fontColor=#232F3E;gradientColor=none;fillColor=#232F3D;strokeColor=none;dashed=0;verticalLabelPosition=bottom;verticalAlign=top;align=center;html=1;fontSize=12;fontStyle=0;aspect=fixed;pointerEvents=1;shape=mxgraph.aws4.user;spacingTop=-70;" vertex="1" parent="1">
          <mxGeometry x="262.8" y="90" width="40" height="40" as="geometry" />
        </mxCell>
        <mxCell id="qzhFqN_j2J7B2suRVD-d-10" value="" style="endArrow=classic;html=1;rounded=0;entryX=0.5;entryY=0;entryDx=0;entryDy=0;" edge="1" parent="1" source="qzhFqN_j2J7B2suRVD-d-9" target="qzhFqN_j2J7B2suRVD-d-8">
          <mxGeometry width="50" height="50" relative="1" as="geometry">
            <mxPoint x="286.8" y="460" as="sourcePoint" />
            <mxPoint x="282.8" y="180" as="targetPoint" />
          </mxGeometry>
        </mxCell>
        <mxCell id="qzhFqN_j2J7B2suRVD-d-11" value="usa" style="edgeLabel;html=1;align=center;verticalAlign=middle;resizable=0;points=[];" vertex="1" connectable="0" parent="qzhFqN_j2J7B2suRVD-d-10">
          <mxGeometry x="0.1" y="-1" relative="1" as="geometry">
            <mxPoint x="1" y="-14" as="offset" />
          </mxGeometry>
        </mxCell>
        <mxCell id="qzhFqN_j2J7B2suRVD-d-12" value="client.py" style="image;aspect=fixed;perimeter=ellipsePerimeter;html=1;align=center;shadow=0;dashed=0;spacingTop=3;image=img/lib/active_directory/laptop_client.svg;" vertex="1" parent="1">
          <mxGeometry x="410" y="200" width="72" height="80" as="geometry" />
        </mxCell>
        <mxCell id="qzhFqN_j2J7B2suRVD-d-13" value="giocatore3" style="sketch=0;outlineConnect=0;fontColor=#232F3E;gradientColor=none;fillColor=#232F3D;strokeColor=none;dashed=0;verticalLabelPosition=bottom;verticalAlign=top;align=center;html=1;fontSize=12;fontStyle=0;aspect=fixed;pointerEvents=1;shape=mxgraph.aws4.user;spacingTop=-70;" vertex="1" parent="1">
          <mxGeometry x="426" y="90" width="40" height="40" as="geometry" />
        </mxCell>
        <mxCell id="qzhFqN_j2J7B2suRVD-d-14" value="" style="endArrow=classic;html=1;rounded=0;" edge="1" parent="1" source="qzhFqN_j2J7B2suRVD-d-13" target="qzhFqN_j2J7B2suRVD-d-12">
          <mxGeometry width="50" height="50" relative="1" as="geometry">
            <mxPoint x="450" y="460" as="sourcePoint" />
            <mxPoint x="446" y="180" as="targetPoint" />
          </mxGeometry>
        </mxCell>
        <mxCell id="qzhFqN_j2J7B2suRVD-d-15" value="usa" style="edgeLabel;html=1;align=center;verticalAlign=middle;resizable=0;points=[];" vertex="1" connectable="0" parent="qzhFqN_j2J7B2suRVD-d-14">
          <mxGeometry x="0.1" y="-1" relative="1" as="geometry">
            <mxPoint x="1" y="-14" as="offset" />
          </mxGeometry>
        </mxCell>
        <mxCell id="qzhFqN_j2J7B2suRVD-d-16" value="client.py" style="image;aspect=fixed;perimeter=ellipsePerimeter;html=1;align=center;shadow=0;dashed=0;spacingTop=3;image=img/lib/active_directory/laptop_client.svg;" vertex="1" parent="1">
          <mxGeometry x="590" y="200" width="72" height="80" as="geometry" />
        </mxCell>
        <mxCell id="qzhFqN_j2J7B2suRVD-d-17" value="giocatore4" style="sketch=0;outlineConnect=0;fontColor=#232F3E;gradientColor=none;fillColor=#232F3D;strokeColor=none;dashed=0;verticalLabelPosition=bottom;verticalAlign=top;align=center;html=1;fontSize=12;fontStyle=0;aspect=fixed;pointerEvents=1;shape=mxgraph.aws4.user;spacingTop=-70;" vertex="1" parent="1">
          <mxGeometry x="606" y="90" width="40" height="40" as="geometry" />
        </mxCell>
        <mxCell id="qzhFqN_j2J7B2suRVD-d-18" value="" style="endArrow=classic;html=1;rounded=0;entryX=0.5;entryY=0;entryDx=0;entryDy=0;" edge="1" parent="1" source="qzhFqN_j2J7B2suRVD-d-17" target="qzhFqN_j2J7B2suRVD-d-16">
          <mxGeometry width="50" height="50" relative="1" as="geometry">
            <mxPoint x="630" y="460" as="sourcePoint" />
            <mxPoint x="626" y="180" as="targetPoint" />
          </mxGeometry>
        </mxCell>
        <mxCell id="qzhFqN_j2J7B2suRVD-d-19" value="usa" style="edgeLabel;html=1;align=center;verticalAlign=middle;resizable=0;points=[];" vertex="1" connectable="0" parent="qzhFqN_j2J7B2suRVD-d-18">
          <mxGeometry x="0.1" y="-1" relative="1" as="geometry">
            <mxPoint x="1" y="-14" as="offset" />
          </mxGeometry>
        </mxCell>
        <mxCell id="qzhFqN_j2J7B2suRVD-d-20" value="" style="endArrow=classic;html=1;rounded=0;exitX=0.856;exitY=1.013;exitDx=0;exitDy=0;startArrow=classicThin;startFill=1;exitPerimeter=0;" edge="1" parent="1" source="qzhFqN_j2J7B2suRVD-d-2">
          <mxGeometry width="50" height="50" relative="1" as="geometry">
            <mxPoint x="210" y="400" as="sourcePoint" />
            <mxPoint x="322" y="446" as="targetPoint" />
          </mxGeometry>
        </mxCell>
        <mxCell id="qzhFqN_j2J7B2suRVD-d-23" value="" style="endArrow=classic;html=1;rounded=0;entryX=0.25;entryY=0;entryDx=0;entryDy=0;startArrow=classicThin;startFill=1;" edge="1" parent="1" target="qzhFqN_j2J7B2suRVD-d-1">
          <mxGeometry width="50" height="50" relative="1" as="geometry">
            <mxPoint x="295" y="307" as="sourcePoint" />
            <mxPoint x="354" y="482" as="targetPoint" />
          </mxGeometry>
        </mxCell>
        <mxCell id="qzhFqN_j2J7B2suRVD-d-25" value="" style="endArrow=classic;html=1;rounded=0;entryX=0.75;entryY=0;entryDx=0;entryDy=0;startArrow=classicThin;startFill=1;" edge="1" parent="1" target="qzhFqN_j2J7B2suRVD-d-1">
          <mxGeometry width="50" height="50" relative="1" as="geometry">
            <mxPoint x="440" y="311" as="sourcePoint" />
            <mxPoint x="364" y="492" as="targetPoint" />
          </mxGeometry>
        </mxCell>
        <mxCell id="qzhFqN_j2J7B2suRVD-d-27" value="" style="endArrow=classic;html=1;rounded=0;entryX=1;entryY=0;entryDx=0;entryDy=0;startArrow=classicThin;startFill=1;" edge="1" parent="1" target="qzhFqN_j2J7B2suRVD-d-1">
          <mxGeometry width="50" height="50" relative="1" as="geometry">
            <mxPoint x="600" y="310" as="sourcePoint" />
            <mxPoint x="374" y="502" as="targetPoint" />
          </mxGeometry>
        </mxCell>
      </root>
    </mxGraphModel>
  </diagram>
</mxfile>
